<?xml version="1.0" standalone="no"?>
<!DOCTYPE svg PUBLIC "-//W3C//DTD SVG 20010904//EN"
 "http://www.w3.org/TR/2001/REC-SVG-20010904/DTD/svg10.dtd">
<svg version="1.0" xmlns="http://www.w3.org/2000/svg"
 width="512.000000pt" height="512.000000pt" viewBox="0 0 512.000000 512.000000"
 preserveAspectRatio="xMidYMid meet">
<metadata>
Created by potrace 1.14, written by Peter Selinger 2001-2017
</metadata>
<g transform="translate(0.000000,512.000000) scale(0.100000,-0.100000)"
fill="#000000" stroke="none">
<path d="M1815 4934 c-330 -51 -647 -186 -905 -387 -36 -28 -85 -70 -110 -93
-25 -23 -54 -51 -65 -61 -19 -18 -79 -83 -140 -153 -95 -111 -249 -380 -300
-525 -9 -27 -21 -59 -26 -70 -10 -23 -56 -195 -63 -240 -3 -16 -8 -41 -11 -55
-14 -67 -17 -119 -20 -285 -2 -99 1 -209 6 -245 5 -36 11 -76 13 -90 29 -192
87 -371 187 -567 152 -301 362 -536 645 -726 511 -341 1142 -414 1734 -202 72
26 246 111 326 160 l73 44 586 -585 c610 -610 625 -623 709 -624 85 0 114 17
258 158 147 144 178 190 178 263 0 107 25 77 -615 719 l-593 595 32 50 c94
145 184 352 230 532 44 167 60 302 60 488 0 138 -6 215 -28 345 -15 86 -71
284 -102 360 -56 133 -217 421 -253 450 -3 3 -32 38 -65 77 -110 136 -283 287
-456 396 -70 45 -271 147 -294 151 -6 1 -15 4 -21 7 -12 8 -165 58 -191 63
-10 3 -58 14 -105 25 -126 29 -163 33 -384 36 -131 1 -231 -2 -290 -11z m475
-740 c560 -98 970 -577 974 -1139 1 -139 -6 -205 -34 -313 -54 -211 -158 -392
-315 -547 -302 -298 -737 -410 -1150 -296 -110 31 -284 117 -381 190 -198 148
-356 374 -427 611 -65 219 -60 487 13 707 91 275 298 521 560 665 128 71 312
125 455 135 44 3 81 6 82 7 7 6 151 -7 223 -20z"/>
</g>
</svg>
